<svg xmlns="http://www.w3.org/2000/svg" version="1.1" xmlns:xlink="http://www.w3.org/1999/xlink" xmlns:svgjs="http://svgjs.dev/svgjs" width="700" height="662" preserveAspectRatio="none" viewBox="0 0 700 662"><g mask="url(&quot;#SvgjsMask4686&quot;)" fill="none"><rect width="700" height="662" x="0" y="0" fill="rgba(53, 53, 53, 1)"></rect><use xlink:href="#SvgjsPath4687" x="30" y="30" stroke="rgba(111, 111, 111, 1)"></use><use xlink:href="#SvgjsPath4688" x="30" y="90" stroke="rgba(111, 111, 111, 1)"></use><use xlink:href="#SvgjsPath4689" x="30" y="150" stroke="rgba(111, 111, 111, 1)"></use><use xlink:href="#SvgjsPath4690" x="30" y="210" stroke="rgba(111, 111, 111, 1)"></use><use xlink:href="#SvgjsPath4689" x="30" y="270" stroke="rgba(111, 111, 111, 1)"></use><use xlink:href="#SvgjsPath4688" x="30" y="330" stroke="rgba(111, 111, 111, 1)"></use><use xlink:href="#SvgjsPath4689" x="30" y="390" stroke="rgba(111, 111, 111, 1)"></use><use xlink:href="#SvgjsPath4689" x="30" y="450" stroke="rgba(111, 111, 111, 1)"></use><use xlink:href="#SvgjsPath4688" x="30" y="510" stroke="rgba(111, 111, 111, 1)"></use><use xlink:href="#SvgjsPath4689" x="30" y="570" stroke="rgba(111, 111, 111, 1)"></use><use xlink:href="#SvgjsPath4688" x="30" y="630" stroke="rgba(111, 111, 111, 1)"></use><use xlink:href="#SvgjsPath4688" x="30" y="690" stroke="rgba(111, 111, 111, 1)"></use><use xlink:href="#SvgjsPath4688" x="90" y="30" stroke="rgba(111, 111, 111, 1)"></use><use xlink:href="#SvgjsPath4688" x="90" y="90" stroke="rgba(111, 111, 111, 1)"></use><use xlink:href="#SvgjsPath4687" x="90" y="150" stroke="rgba(111, 111, 111, 1)"></use><use xlink:href="#SvgjsPath4687" x="90" y="210" stroke="rgba(111, 111, 111, 1)"></use><use xlink:href="#SvgjsPath4690" x="90" y="270" stroke="rgba(111, 111, 111, 1)"></use><use xlink:href="#SvgjsPath4689" x="90" y="330" stroke="rgba(111, 111, 111, 1)"></use><use xlink:href="#SvgjsPath4690" x="90" y="390" stroke="rgba(111, 111, 111, 1)"></use><use xlink:href="#SvgjsPath4690" x="90" y="450" stroke="rgba(111, 111, 111, 1)"></use><use xlink:href="#SvgjsPath4689" x="90" y="510" stroke="rgba(111, 111, 111, 1)"></use><use xlink:href="#SvgjsPath4688" x="90" y="570" stroke="rgba(111, 111, 111, 1)"></use><use xlink:href="#SvgjsPath4688" x="90" y="630" stroke="rgba(111, 111, 111, 1)"></use><use xlink:href="#SvgjsPath4688" x="90" y="690" stroke="rgba(111, 111, 111, 1)"></use><use xlink:href="#SvgjsPath4690" x="150" y="30" stroke="rgba(111, 111, 111, 1)"></use><use xlink:href="#SvgjsPath4688" x="150" y="90" stroke="rgba(111, 111, 111, 1)"></use><use xlink:href="#SvgjsPath4690" x="150" y="150" stroke="rgba(111, 111, 111, 1)"></use><use xlink:href="#SvgjsPath4687" x="150" y="210" stroke="rgba(111, 111, 111, 1)"></use><use xlink:href="#SvgjsPath4688" x="150" y="270" stroke="rgba(111, 111, 111, 1)"></use><use xlink:href="#SvgjsPath4689" x="150" y="330" stroke="rgba(111, 111, 111, 1)"></use><use xlink:href="#SvgjsPath4687" x="150" y="390" stroke="rgba(111, 111, 111, 1)"></use><use xlink:href="#SvgjsPath4691" x="150" y="450" stroke="rgba(111, 111, 111, 1)" stroke-width="3"></use><use xlink:href="#SvgjsPath4687" x="150" y="510" stroke="rgba(111, 111, 111, 1)"></use><use xlink:href="#SvgjsPath4691" x="150" y="570" stroke="rgba(111, 111, 111, 1)" stroke-width="3"></use><use xlink:href="#SvgjsPath4689" x="150" y="630" stroke="rgba(111, 111, 111, 1)"></use><use xlink:href="#SvgjsPath4692" x="150" y="690" stroke="rgba(111, 111, 111, 1)"></use><use xlink:href="#SvgjsPath4692" x="210" y="30" stroke="rgba(111, 111, 111, 1)"></use><use xlink:href="#SvgjsPath4687" x="210" y="90" stroke="rgba(111, 111, 111, 1)"></use><use xlink:href="#SvgjsPath4688" x="210" y="150" stroke="rgba(111, 111, 111, 1)"></use><use xlink:href="#SvgjsPath4692" x="210" y="210" stroke="rgba(111, 111, 111, 1)"></use><use xlink:href="#SvgjsPath4688" x="210" y="270" stroke="rgba(111, 111, 111, 1)"></use><use xlink:href="#SvgjsPath4689" x="210" y="330" stroke="rgba(111, 111, 111, 1)"></use><use xlink:href="#SvgjsPath4688" x="210" y="390" stroke="rgba(111, 111, 111, 1)"></use><use xlink:href="#SvgjsPath4688" x="210" y="450" stroke="rgba(111, 111, 111, 1)"></use><use xlink:href="#SvgjsPath4688" x="210" y="510" stroke="rgba(111, 111, 111, 1)"></use><use xlink:href="#SvgjsPath4690" x="210" y="570" stroke="rgba(111, 111, 111, 1)"></use><use xlink:href="#SvgjsPath4688" x="210" y="630" stroke="rgba(111, 111, 111, 1)"></use><use xlink:href="#SvgjsPath4690" x="210" y="690" stroke="rgba(111, 111, 111, 1)"></use><use xlink:href="#SvgjsPath4690" x="270" y="30" stroke="rgba(111, 111, 111, 1)"></use><use xlink:href="#SvgjsPath4688" x="270" y="90" stroke="rgba(111, 111, 111, 1)"></use><use xlink:href="#SvgjsPath4689" x="270" y="150" stroke="rgba(111, 111, 111, 1)"></use><use xlink:href="#SvgjsPath4688" x="270" y="210" stroke="rgba(111, 111, 111, 1)"></use><use xlink:href="#SvgjsPath4689" x="270" y="270" stroke="rgba(111, 111, 111, 1)"></use><use xlink:href="#SvgjsPath4690" x="270" y="330" stroke="rgba(111, 111, 111, 1)"></use><use xlink:href="#SvgjsPath4692" x="270" y="390" stroke="rgba(111, 111, 111, 1)"></use><use xlink:href="#SvgjsPath4687" x="270" y="450" stroke="rgba(111, 111, 111, 1)"></use><use xlink:href="#SvgjsPath4689" x="270" y="510" stroke="rgba(111, 111, 111, 1)"></use><use xlink:href="#SvgjsPath4691" x="270" y="570" stroke="rgba(111, 111, 111, 1)" stroke-width="3"></use><use xlink:href="#SvgjsPath4688" x="270" y="630" stroke="rgba(111, 111, 111, 1)"></use><use xlink:href="#SvgjsPath4688" x="270" y="690" stroke="rgba(111, 111, 111, 1)"></use><use xlink:href="#SvgjsPath4688" x="330" y="30" stroke="rgba(111, 111, 111, 1)"></use><use xlink:href="#SvgjsPath4690" x="330" y="90" stroke="rgba(111, 111, 111, 1)"></use><use xlink:href="#SvgjsPath4690" x="330" y="150" stroke="rgba(111, 111, 111, 1)"></use><use xlink:href="#SvgjsPath4688" x="330" y="210" stroke="rgba(111, 111, 111, 1)"></use><use xlink:href="#SvgjsPath4689" x="330" y="270" stroke="rgba(111, 111, 111, 1)"></use><use xlink:href="#SvgjsPath4689" x="330" y="330" stroke="rgba(111, 111, 111, 1)"></use><use xlink:href="#SvgjsPath4688" x="330" y="390" stroke="rgba(111, 111, 111, 1)"></use><use xlink:href="#SvgjsPath4690" x="330" y="450" stroke="rgba(111, 111, 111, 1)"></use><use xlink:href="#SvgjsPath4688" x="330" y="510" stroke="rgba(111, 111, 111, 1)"></use><use xlink:href="#SvgjsPath4689" x="330" y="570" stroke="rgba(111, 111, 111, 1)"></use><use xlink:href="#SvgjsPath4688" x="330" y="630" stroke="rgba(111, 111, 111, 1)"></use><use xlink:href="#SvgjsPath4689" x="330" y="690" stroke="rgba(111, 111, 111, 1)"></use><use xlink:href="#SvgjsPath4690" x="390" y="30" stroke="rgba(111, 111, 111, 1)"></use><use xlink:href="#SvgjsPath4688" x="390" y="90" stroke="rgba(111, 111, 111, 1)"></use><use xlink:href="#SvgjsPath4689" x="390" y="150" stroke="rgba(111, 111, 111, 1)"></use><use xlink:href="#SvgjsPath4688" x="390" y="210" stroke="rgba(111, 111, 111, 1)"></use><use xlink:href="#SvgjsPath4688" x="390" y="270" stroke="rgba(111, 111, 111, 1)"></use><use xlink:href="#SvgjsPath4688" x="390" y="330" stroke="rgba(111, 111, 111, 1)"></use><use xlink:href="#SvgjsPath4688" x="390" y="390" stroke="rgba(111, 111, 111, 1)"></use><use xlink:href="#SvgjsPath4689" x="390" y="450" stroke="rgba(111, 111, 111, 1)"></use><use xlink:href="#SvgjsPath4688" x="390" y="510" stroke="rgba(111, 111, 111, 1)"></use><use xlink:href="#SvgjsPath4690" x="390" y="570" stroke="rgba(111, 111, 111, 1)"></use><use xlink:href="#SvgjsPath4688" x="390" y="630" stroke="rgba(111, 111, 111, 1)"></use><use xlink:href="#SvgjsPath4688" x="390" y="690" stroke="rgba(111, 111, 111, 1)"></use><use xlink:href="#SvgjsPath4688" x="450" y="30" stroke="rgba(111, 111, 111, 1)"></use><use xlink:href="#SvgjsPath4689" x="450" y="90" stroke="rgba(111, 111, 111, 1)"></use><use xlink:href="#SvgjsPath4692" x="450" y="150" stroke="rgba(111, 111, 111, 1)"></use><use xlink:href="#SvgjsPath4692" x="450" y="210" stroke="rgba(111, 111, 111, 1)"></use><use xlink:href="#SvgjsPath4689" x="450" y="270" stroke="rgba(111, 111, 111, 1)"></use><use xlink:href="#SvgjsPath4688" x="450" y="330" stroke="rgba(111, 111, 111, 1)"></use><use xlink:href="#SvgjsPath4689" x="450" y="390" stroke="rgba(111, 111, 111, 1)"></use><use xlink:href="#SvgjsPath4690" x="450" y="450" stroke="rgba(111, 111, 111, 1)"></use><use xlink:href="#SvgjsPath4687" x="450" y="510" stroke="rgba(111, 111, 111, 1)"></use><use xlink:href="#SvgjsPath4692" x="450" y="570" stroke="rgba(111, 111, 111, 1)"></use><use xlink:href="#SvgjsPath4689" x="450" y="630" stroke="rgba(111, 111, 111, 1)"></use><use xlink:href="#SvgjsPath4690" x="450" y="690" stroke="rgba(111, 111, 111, 1)"></use><use xlink:href="#SvgjsPath4688" x="510" y="30" stroke="rgba(111, 111, 111, 1)"></use><use xlink:href="#SvgjsPath4689" x="510" y="90" stroke="rgba(111, 111, 111, 1)"></use><use xlink:href="#SvgjsPath4688" x="510" y="150" stroke="rgba(111, 111, 111, 1)"></use><use xlink:href="#SvgjsPath4688" x="510" y="210" stroke="rgba(111, 111, 111, 1)"></use><use xlink:href="#SvgjsPath4688" x="510" y="270" stroke="rgba(111, 111, 111, 1)"></use><use xlink:href="#SvgjsPath4691" x="510" y="330" stroke="rgba(111, 111, 111, 1)" stroke-width="3"></use><use xlink:href="#SvgjsPath4692" x="510" y="390" stroke="rgba(111, 111, 111, 1)"></use><use xlink:href="#SvgjsPath4690" x="510" y="450" stroke="rgba(111, 111, 111, 1)"></use><use xlink:href="#SvgjsPath4689" x="510" y="510" stroke="rgba(111, 111, 111, 1)"></use><use xlink:href="#SvgjsPath4690" x="510" y="570" stroke="rgba(111, 111, 111, 1)"></use><use xlink:href="#SvgjsPath4689" x="510" y="630" stroke="rgba(111, 111, 111, 1)"></use><use xlink:href="#SvgjsPath4689" x="510" y="690" stroke="rgba(111, 111, 111, 1)"></use><use xlink:href="#SvgjsPath4690" x="570" y="30" stroke="rgba(111, 111, 111, 1)"></use><use xlink:href="#SvgjsPath4688" x="570" y="90" stroke="rgba(111, 111, 111, 1)"></use><use xlink:href="#SvgjsPath4689" x="570" y="150" stroke="rgba(111, 111, 111, 1)"></use><use xlink:href="#SvgjsPath4690" x="570" y="210" stroke="rgba(111, 111, 111, 1)"></use><use xlink:href="#SvgjsPath4689" x="570" y="270" stroke="rgba(111, 111, 111, 1)"></use><use xlink:href="#SvgjsPath4688" x="570" y="330" stroke="rgba(111, 111, 111, 1)"></use><use xlink:href="#SvgjsPath4688" x="570" y="390" stroke="rgba(111, 111, 111, 1)"></use><use xlink:href="#SvgjsPath4691" x="570" y="450" stroke="rgba(111, 111, 111, 1)" stroke-width="3"></use><use xlink:href="#SvgjsPath4688" x="570" y="510" stroke="rgba(111, 111, 111, 1)"></use><use xlink:href="#SvgjsPath4690" x="570" y="570" stroke="rgba(111, 111, 111, 1)"></use><use xlink:href="#SvgjsPath4687" x="570" y="630" stroke="rgba(111, 111, 111, 1)"></use><use xlink:href="#SvgjsPath4691" x="570" y="690" stroke="rgba(111, 111, 111, 1)" stroke-width="3"></use><use xlink:href="#SvgjsPath4688" x="630" y="30" stroke="rgba(111, 111, 111, 1)"></use><use xlink:href="#SvgjsPath4688" x="630" y="90" stroke="rgba(111, 111, 111, 1)"></use><use xlink:href="#SvgjsPath4688" x="630" y="150" stroke="rgba(111, 111, 111, 1)"></use><use xlink:href="#SvgjsPath4689" x="630" y="210" stroke="rgba(111, 111, 111, 1)"></use><use xlink:href="#SvgjsPath4687" x="630" y="270" stroke="rgba(111, 111, 111, 1)"></use><use xlink:href="#SvgjsPath4692" x="630" y="330" stroke="rgba(111, 111, 111, 1)"></use><use xlink:href="#SvgjsPath4689" x="630" y="390" stroke="rgba(111, 111, 111, 1)"></use><use xlink:href="#SvgjsPath4689" x="630" y="450" stroke="rgba(111, 111, 111, 1)"></use><use xlink:href="#SvgjsPath4689" x="630" y="510" stroke="rgba(111, 111, 111, 1)"></use><use xlink:href="#SvgjsPath4688" x="630" y="570" stroke="rgba(111, 111, 111, 1)"></use><use xlink:href="#SvgjsPath4689" x="630" y="630" stroke="rgba(111, 111, 111, 1)"></use><use xlink:href="#SvgjsPath4689" x="630" y="690" stroke="rgba(111, 111, 111, 1)"></use><use xlink:href="#SvgjsPath4688" x="690" y="30" stroke="rgba(111, 111, 111, 1)"></use><use xlink:href="#SvgjsPath4690" x="690" y="90" stroke="rgba(111, 111, 111, 1)"></use><use xlink:href="#SvgjsPath4688" x="690" y="150" stroke="rgba(111, 111, 111, 1)"></use><use xlink:href="#SvgjsPath4690" x="690" y="210" stroke="rgba(111, 111, 111, 1)"></use><use xlink:href="#SvgjsPath4689" x="690" y="270" stroke="rgba(111, 111, 111, 1)"></use><use xlink:href="#SvgjsPath4687" x="690" y="330" stroke="rgba(111, 111, 111, 1)"></use><use xlink:href="#SvgjsPath4687" x="690" y="390" stroke="rgba(111, 111, 111, 1)"></use><use xlink:href="#SvgjsPath4690" x="690" y="450" stroke="rgba(111, 111, 111, 1)"></use><use xlink:href="#SvgjsPath4688" x="690" y="510" stroke="rgba(111, 111, 111, 1)"></use><use xlink:href="#SvgjsPath4687" x="690" y="570" stroke="rgba(111, 111, 111, 1)"></use><use xlink:href="#SvgjsPath4689" x="690" y="630" stroke="rgba(111, 111, 111, 1)"></use><use xlink:href="#SvgjsPath4692" x="690" y="690" stroke="rgba(111, 111, 111, 1)"></use></g><defs><mask id="SvgjsMask4686"><rect width="700" height="662" fill="#ffffff"></rect></mask><path d="M-1 0 a1 1 0 1 0 2 0 a1 1 0 1 0 -2 0z" id="SvgjsPath4692"></path><path d="M-3 0 a3 3 0 1 0 6 0 a3 3 0 1 0 -6 0z" id="SvgjsPath4687"></path><path d="M-5 0 a5 5 0 1 0 10 0 a5 5 0 1 0 -10 0z" id="SvgjsPath4688"></path><path d="M2 -2 L-2 2z" id="SvgjsPath4690"></path><path d="M6 -6 L-6 6z" id="SvgjsPath4689"></path><path d="M30 -30 L-30 30z" id="SvgjsPath4691"></path></defs></svg>